<svg width="77" height="75" viewBox="0 0 77 75" fill="none" xmlns="http://www.w3.org/2000/svg">
<g clip-path="url(#clip0_7_6920)" filter="url(#filter0_d_7_6920)">
<path fill-rule="evenodd" clip-rule="evenodd" d="M29.3016 31.1886H22.5018V33.5508C22.5018 34.1348 22.9785 34.6118 23.562 34.6118H26.0079L27.4669 35.3488L29.3016 34.6118V31.1886H29.3016Z" fill="#FFEF60"/>
<path fill-rule="evenodd" clip-rule="evenodd" d="M28.2414 27.7609H23.5621C22.9785 27.7609 22.5019 28.2379 22.5019 28.8219V30.5771H29.3016V28.8219C29.3016 28.2379 28.825 27.7609 28.2414 27.7609Z" fill="#FFEF60"/>
<path fill-rule="evenodd" clip-rule="evenodd" d="M29.3016 30.0481H22.5019V31.7161H29.3016V30.0481Z" fill="#FF814E"/>
<path fill-rule="evenodd" clip-rule="evenodd" d="M23.9235 30.048H23.0527H22.5043V28.8218C22.5043 28.4228 22.7273 28.0742 23.0527 27.8938C23.2055 27.8097 23.3796 27.7607 23.5645 27.7607H24.9838C24.4002 27.7607 23.9236 28.2377 23.9236 28.8218V30.048H23.9235Z" fill="#FFCD1B"/>
<path fill-rule="evenodd" clip-rule="evenodd" d="M23.9185 31.7161H23.0477H22.4992V31.1887V30.5771V30.0481H23.0477H23.9185V30.5771V31.1887V31.7161Z" fill="#FF5A17"/>
<path fill-rule="evenodd" clip-rule="evenodd" d="M23.9236 31.7161V33.5508C23.9236 34.1348 24.4002 34.6118 24.9838 34.6118H23.5645C23.3797 34.6118 23.2056 34.5644 23.0527 34.4804C22.7274 34.2984 22.5043 33.9499 22.5043 33.5508V31.7161H23.0527H23.9236Z" fill="#FFCD1B"/>
<path fill-rule="evenodd" clip-rule="evenodd" d="M29.3012 34.612H26.0075V36.1271C26.0075 36.491 26.3053 36.7876 26.6674 36.7876H37.3914C37.3914 35.8351 37.3914 35.3504 36.6627 35.3504L35.2114 35.3489C34.2978 35.3474 33.6989 35.1134 33.3644 34.6119H29.3012V34.612Z" fill="#635448"/>
<path fill-rule="evenodd" clip-rule="evenodd" d="M36.0969 36.7876H26.6664C26.1134 37.7508 25.6689 38.9082 26.0523 41.1221C26.694 38.9388 33.2111 39.8103 33.8802 42.3299H41.071C41.343 41.7137 41.5996 41.1052 41.8242 40.4906H39.797C35.6967 38.9433 37.015 39.6329 36.0969 36.7876Z" fill="#FF8C5E"/>
<path fill-rule="evenodd" clip-rule="evenodd" d="M36.6776 30.8691C36.5371 31.6091 36.3461 32.3385 36.1323 32.9592L34.0593 33.7714L31.7478 32.9592C31.8288 28.5849 33.4634 26.4873 34.8536 25.8084C35.3547 25.4269 35.868 25.2832 35.868 25.2832C35.868 25.2832 36.5432 26.3634 36.5784 26.3634C36.8381 26.9811 36.9359 27.7869 36.9191 28.6568L36.6776 30.8691Z" fill="#FFFAFA"/>
<path fill-rule="evenodd" clip-rule="evenodd" d="M31.748 32.9591H36.1324C37.1423 33.0692 38.3843 33.8383 38.3843 36.2203V38.717L37.3893 39.3097L36.0958 38.717V36.7875C36.0958 35.835 36.0958 35.3503 35.3671 35.3503L33.9158 35.3488C33.0023 35.3473 32.4034 35.1133 32.0689 34.6118C31.8106 34.2251 31.7113 33.6792 31.748 32.9591Z" fill="#FF8086"/>
<path fill-rule="evenodd" clip-rule="evenodd" d="M31.7482 32.9592C31.8292 28.585 33.4638 26.4873 34.854 25.8085C35.0603 25.9537 35.2895 26.073 35.5415 26.1616C34.3102 27.0927 33.0758 29.1736 33.0056 32.9592H31.7482Z" fill="#FFC8C8"/>
<path fill-rule="evenodd" clip-rule="evenodd" d="M31.7489 32.9591H33.0062C32.9695 33.6792 33.0688 34.2251 33.327 34.6119C33.5378 34.9284 33.8556 35.1959 34.291 35.3488H33.9167C33.0031 35.3473 32.4043 35.1134 32.0697 34.6119C31.8116 34.2251 31.7123 33.6792 31.7489 32.9591Z" fill="#F76672"/>
<path fill-rule="evenodd" clip-rule="evenodd" d="M33.8771 42.3299C33.8771 40.0687 32.0851 38.2676 29.8745 38.2676C28.0764 38.2676 26.5549 39.4601 26.0492 41.1221C25.9453 41.463 25.8842 41.8254 25.8735 42.2015C25.8689 42.3483 25.9698 42.3299 26.1073 42.3299C28.6967 42.3299 31.2877 42.3284 33.8771 42.3299Z" fill="#FF8C5D"/>
<path fill-rule="evenodd" clip-rule="evenodd" d="M32.8745 42.3298H26.7821C26.8691 43.9719 28.1997 45.2776 29.8283 45.2776C31.4568 45.2776 32.7875 43.9719 32.8745 42.3298Z" fill="#2A333E"/>
<path fill-rule="evenodd" clip-rule="evenodd" d="M48.3452 41.6801L43.1037 42.8864C43.4367 44.3343 44.8804 45.2394 46.3271 44.9061C47.7753 44.5728 48.6782 43.128 48.3452 41.6801Z" fill="#2A333E"/>
<path fill-rule="evenodd" clip-rule="evenodd" d="M48.7374 40.2108C47.9965 39.1329 46.7102 38.5076 45.3658 38.6421C42.9948 39.1436 42.2233 40.5609 42.069 42.3284C42.0721 42.5684 42.0981 42.81 42.15 43.0515C42.1653 43.1188 42.2096 43.0913 42.283 43.0745L43.1034 42.8864L48.3449 41.6801L48.7375 41.5899L49.2859 41.463C49.1805 41.0012 48.991 40.5793 48.7374 40.2108Z" fill="#FFFAFA"/>
<path fill-rule="evenodd" clip-rule="evenodd" d="M45.3672 38.6359L43.2498 31.3094L42.2965 30.8828L41.2302 31.3094C42.6311 35.1929 42.24 37.9036 41.2943 40.4905C41.0682 41.1052 40.8116 41.7137 40.5412 42.3298H42.0643L45.3672 38.6359Z" fill="#FF814E"/>
<path fill-rule="evenodd" clip-rule="evenodd" d="M38.8142 23.0946L36.3301 22.5656C36.0781 22.5885 35.357 23.194 35.357 23.5731L35.8855 26.2609C36.1055 26.3267 36.3393 26.3634 36.5806 26.3634C37.9036 26.3634 38.9761 25.2886 38.9761 23.9645C38.9761 23.6572 38.9196 23.3636 38.8142 23.0946Z" fill="#FFECE4"/>
<path fill-rule="evenodd" clip-rule="evenodd" d="M39.6125 23.0946C39.6125 21.3853 38.259 20.0016 36.5877 20.0016C34.9164 20.0016 33.5629 21.3853 33.5629 23.0946C33.5629 24.2229 34.0212 25.2259 34.8523 25.8084C35.1486 26.0179 35.4939 26.1723 35.8819 26.261V23.5731C35.8819 23.1939 36.0744 23.1175 36.3265 23.0945H38.8105H39.6125V23.0946Z" fill="#FF8C5D"/>
<path fill-rule="evenodd" clip-rule="evenodd" d="M38.1726 20.4587C37.7128 20.1682 37.1704 20.0016 36.5899 20.0016C34.9186 20.0016 33.5651 21.3853 33.5651 23.0946C33.5651 24.2229 34.0234 25.2259 34.8545 25.8084C35.0653 25.9567 35.2991 26.0775 35.5557 26.1662C34.9416 25.5439 34.6086 24.651 34.6086 23.6664C34.6086 21.8806 36.0247 20.4327 37.7709 20.4327C37.9068 20.4327 38.0412 20.4403 38.1726 20.4587Z" fill="#FF5A17"/>
<path fill-rule="evenodd" clip-rule="evenodd" d="M38.387 38.717H36.0984V40.1588C36.0984 40.4677 36.2665 40.4906 36.514 40.4906H39.7985C39.8643 39.0442 38.9889 38.717 38.387 38.717Z" fill="#635448"/>
<path fill-rule="evenodd" clip-rule="evenodd" d="M41.2984 40.4906C42.244 37.9037 42.6351 35.1929 41.2342 31.3094H42.0195C42.0225 31.3094 42.0256 31.3094 42.0286 31.3094H42.3112C43.7121 35.1929 43.3226 37.9036 42.3754 40.4906C42.1508 41.1052 41.8942 41.7137 41.6223 42.3299H41.0723H40.5452C40.8156 41.7137 41.0723 41.1052 41.2984 40.4906Z" fill="#FF5A17"/>
<path fill-rule="evenodd" clip-rule="evenodd" d="M42.0704 42.3284L45.3671 38.6421C45.7078 38.6085 46.0455 38.6222 46.3708 38.6819L43.2024 42.2244C43.2055 42.4307 43.2253 42.6402 43.265 42.8497L43.1046 42.8863L42.2842 43.0744C42.2109 43.0912 42.1666 43.1188 42.1513 43.0515C42.0994 42.81 42.0735 42.5684 42.0704 42.3284Z" fill="#FFC8C8"/>
<path fill-rule="evenodd" clip-rule="evenodd" d="M26.6667 36.7876H36.0972V37.6178H28.3487C27.7178 37.6178 27.4184 37.8899 27.1724 38.4419C26.96 38.9205 26.9554 39.0764 26.8592 39.6543C26.4971 40.0748 26.2191 40.5732 26.0526 41.1221C25.6692 38.9082 26.1137 37.7508 26.6667 36.7876Z" fill="#FF5A17"/>
<path fill-rule="evenodd" clip-rule="evenodd" d="M26.8584 39.6542C27.5917 38.8025 28.6718 38.2675 29.8771 38.2675C30.1796 38.2675 30.4729 38.3011 30.7555 38.3638C28.9513 38.772 27.6894 40.3651 27.6344 42.2014C27.6314 42.3023 27.6772 42.3252 27.7505 42.3298H26.7804H26.1098C25.9723 42.3298 25.8714 42.3482 25.876 42.2014C25.8867 41.8253 25.9478 41.4629 26.0517 41.1219C26.0547 41.1112 26.0578 41.1021 26.0608 41.0929C26.0608 41.0929 26.0608 41.0929 26.0608 41.0914C26.2289 40.5547 26.5024 40.067 26.8584 39.6542Z" fill="#FF5A17"/>
<path fill-rule="evenodd" clip-rule="evenodd" d="M43.2648 42.8496L48.3459 41.6801C48.4024 41.9201 48.4223 42.1617 48.4131 42.3971L44.3801 43.3252L44.2212 43.3619C44.3709 44.0193 44.7513 44.5651 45.257 44.9336C44.2258 44.7516 43.3534 43.9719 43.1044 42.8864L43.2648 42.8496Z" fill="#635448"/>
<path fill-rule="evenodd" clip-rule="evenodd" d="M27.751 42.3299H32.8734C32.8566 42.6509 32.7909 42.9598 32.6855 43.2487H29.1168H28.1467C28.1849 43.9673 28.4599 44.6202 28.8938 45.1293C27.7159 44.7425 26.8498 43.6432 26.781 42.3298H27.751V42.3299Z" fill="#635448"/>
<path fill-rule="evenodd" clip-rule="evenodd" d="M26.0065 36.1271V34.6119H28.0765V36.1271C28.0765 36.491 28.3744 36.7875 28.7365 36.7875H26.6664C26.3043 36.7876 26.0065 36.491 26.0065 36.1271Z" fill="#2A333E"/>
<path fill-rule="evenodd" clip-rule="evenodd" d="M38.9612 23.7076H36.9202C36.6681 23.7305 36.4756 23.8085 36.4756 24.1877V26.3603C36.2709 26.3511 36.0723 26.3175 35.8829 26.2609V23.5731C35.8829 23.1939 36.0753 23.1174 36.3274 23.0945H38.8115C38.8863 23.2872 38.9383 23.4935 38.9612 23.7076Z" fill="#FFDDCE"/>
<path fill-rule="evenodd" clip-rule="evenodd" d="M43.6954 29.0023L40.8371 29.9472C40.6966 30.0725 40.8554 31.3507 40.9502 31.3094H43.254H44.2729V29.2057C44.2729 28.7913 44.0575 28.883 43.6954 29.0023Z" fill="#FFE07D"/>
<path fill-rule="evenodd" clip-rule="evenodd" d="M39.5071 31.3095H39.747H40.9523C41.7284 31.3095 41.7513 30.0222 40.8393 29.9472L39.5071 29.8402L39.1497 30.597L39.5071 31.3095Z" fill="#FFECE4"/>
<path fill-rule="evenodd" clip-rule="evenodd" d="M36.9206 28.6568L36.4424 28.2455C35.2447 27.2135 33.7307 28.9549 35.3318 29.9946L36.6792 30.8691L37.3575 31.3095H39.5039V29.8402L38.1703 29.7316L36.9206 28.6568Z" fill="#FF8086"/>
<path fill-rule="evenodd" clip-rule="evenodd" d="M39.5067 31.3094V30.597H39.7924H39.9467H40.1881H41.3934C41.4392 30.597 41.482 30.5939 41.5233 30.5847C41.5676 30.9394 41.3674 31.3094 40.9519 31.3094H39.7465H39.5067Z" fill="#FFDDCE"/>
<path fill-rule="evenodd" clip-rule="evenodd" d="M35.3318 29.9945C34.3632 29.3646 34.5343 28.4794 35.0858 28.1063C35.0415 28.4885 35.2233 28.9273 35.7732 29.2836L36.8228 29.964L37.1191 30.1582L37.7975 30.597H39.5039V31.3094H37.3575L36.6792 30.8691L35.3318 29.9945Z" fill="#F76672"/>
<path fill-rule="evenodd" clip-rule="evenodd" d="M40.837 29.9472L41.9874 29.568C42.3723 29.9808 42.5587 30.785 42.3112 31.3094H41.2342H40.9501C41.3656 31.3094 41.5657 30.9394 41.5215 30.5847C41.4817 30.2774 41.2602 29.9823 40.837 29.9472Z" fill="#FFC269"/>
</g>
<defs>
<filter id="filter0_d_7_6920" x="0.584838" y="-0.232965" width="75.4851" height="75.4851" filterUnits="userSpaceOnUse" color-interpolation-filters="sRGB">
<feFlood flood-opacity="0" result="BackgroundImageFix"/>
<feColorMatrix in="SourceAlpha" type="matrix" values="0 0 0 0 0 0 0 0 0 0 0 0 0 0 0 0 0 0 127 0" result="hardAlpha"/>
<feOffset dx="2.435" dy="4.87001"/>
<feGaussianBlur stdDeviation="12.175"/>
<feColorMatrix type="matrix" values="0 0 0 0 1 0 0 0 0 0.466667 0 0 0 0 0.491863 0 0 0 0.6 0"/>
<feBlend mode="normal" in2="BackgroundImageFix" result="effect1_dropShadow_7_6920"/>
<feBlend mode="normal" in="SourceGraphic" in2="effect1_dropShadow_7_6920" result="shape"/>
</filter>
<clipPath id="clip0_7_6920">
<rect width="26.7851" height="26.7851" fill="white" transform="matrix(-1 0 0 1 49.2849 19.2471)"/>
</clipPath>
</defs>
</svg>
